<svg width="230" height="36" viewBox="0 0 230 36" fill="none" xmlns="http://www.w3.org/2000/svg">
<mask id="path-1-outside-1_79_5" maskUnits="userSpaceOnUse" x="0.390625" y="-0.46875" width="230" height="37" fill="black">
<rect fill="white" x="0.390625" y="-0.46875" width="230" height="37"/>
<path d="M28.6406 25.1875L27.5469 33H2.39062V32.375L21.8828 5.1875H12.0391C9.07031 5.1875 7.0651 5.82552 6.02344 7.10156C5.65885 7.57031 5.35938 8.09115 5.125 8.66406C4.91667 9.21094 4.73438 10.0182 4.57812 11.0859H3.36719L4.26562 3.46875H27.7422V4.17188L8.44531 31.3203H19.9297C21.2057 31.3203 22.3125 31.1771 23.25 30.8906C24.2135 30.5781 24.9557 30.1354 25.4766 29.5625C25.7109 29.3281 25.9062 29.0807 26.0625 28.8203C26.2448 28.5599 26.4141 28.2734 26.5703 27.9609C26.7526 27.6224 26.9219 27.2318 27.0781 26.7891C27.2344 26.3464 27.4036 25.8125 27.5859 25.1875H28.6406Z"/>
<path d="M40.3594 12.4922C41.7917 12.4922 43.1068 12.7396 44.3047 13.2344C45.5026 13.7292 46.5312 14.4323 47.3906 15.3438C48.276 16.2292 48.9661 17.2839 49.4609 18.5078C49.9557 19.7318 50.2031 21.0859 50.2031 22.5703C50.2031 24.1328 49.9427 25.5781 49.4219 26.9062C48.9271 28.2083 48.237 29.3542 47.3516 30.3438C46.4661 31.3073 45.4115 32.0625 44.1875 32.6094C42.9896 33.1562 41.6875 33.4297 40.2812 33.4297C38.875 33.4297 37.5729 33.1693 36.375 32.6484C35.1771 32.1276 34.1484 31.3984 33.2891 30.4609C32.4297 29.5234 31.7526 28.4167 31.2578 27.1406C30.763 25.8646 30.5156 24.4714 30.5156 22.9609C30.5156 21.4245 30.75 20.0182 31.2188 18.7422C31.7135 17.4401 32.3906 16.3333 33.25 15.4219C34.1094 14.4844 35.138 13.7682 36.3359 13.2734C37.5599 12.7526 38.901 12.4922 40.3594 12.4922ZM39.6953 13.7422C38.1328 13.7422 36.8828 14.3802 35.9453 15.6562C35.0078 16.9323 34.5391 18.625 34.5391 20.7344C34.5391 22.3229 34.7083 23.8724 35.0469 25.3828C35.3854 26.8672 35.8672 28.1953 36.4922 29.3672C36.9609 30.2786 37.5859 30.9818 38.3672 31.4766C39.1484 31.9714 39.9948 32.2188 40.9062 32.2188C42.5469 32.2188 43.8229 31.5026 44.7344 30.0703C45.6719 28.612 46.1406 26.6198 46.1406 24.0938C46.1406 22.1927 45.8672 20.4219 45.3203 18.7812C44.7734 17.1406 44.0312 15.9036 43.0938 15.0703C42.599 14.6016 42.0781 14.263 41.5312 14.0547C40.9844 13.8464 40.3724 13.7422 39.6953 13.7422Z"/>
<path d="M66.6875 33.3125V30.4219C65.9323 31.5156 65.099 32.2969 64.1875 32.7656C63.3021 33.2083 62.2344 33.4297 60.9844 33.4297C59.7344 33.4297 58.6016 33.2083 57.5859 32.7656C56.5703 32.2969 55.6979 31.6458 54.9688 30.8125C54.2656 29.9531 53.7057 28.9375 53.2891 27.7656C52.8984 26.5938 52.7031 25.2917 52.7031 23.8594C52.7031 22.2708 52.9505 20.7865 53.4453 19.4062C53.9401 18.026 54.6042 16.8151 55.4375 15.7734C56.2708 14.7318 57.2474 13.9115 58.3672 13.3125C59.513 12.7135 60.724 12.4141 62 12.4141C62.9115 12.4141 63.7057 12.5573 64.3828 12.8438C65.0599 13.1042 65.8281 13.599 66.6875 14.3281V7.45312C66.6875 6.54167 66.5443 5.92969 66.2578 5.61719C65.9974 5.30469 65.4505 5.14844 64.6172 5.14844C64.4349 5.14844 64.2656 5.16146 64.1094 5.1875C63.9792 5.1875 63.8229 5.20052 63.6406 5.22656V4.44531C64.3438 4.26302 64.9818 4.10677 65.5547 3.97656C66.1276 3.82031 66.6615 3.67708 67.1562 3.54688C67.6771 3.39062 68.1719 3.23438 68.6406 3.07812C69.1354 2.92188 69.6562 2.73958 70.2031 2.53125L70.4375 2.64844V27.9219C70.4375 28.9635 70.5547 29.6536 70.7891 29.9922C71.0495 30.3047 71.5833 30.4609 72.3906 30.4609C72.5208 30.4609 72.6771 30.4609 72.8594 30.4609C73.0677 30.4349 73.263 30.4219 73.4453 30.4219V31.125L66.8828 33.4297L66.6875 33.3125ZM66.6875 18.1172C66.6875 17.5443 66.5573 16.9974 66.2969 16.4766C66.0625 15.9297 65.737 15.4479 65.3203 15.0312C64.9036 14.6146 64.4089 14.2891 63.8359 14.0547C63.2891 13.7943 62.7161 13.6641 62.1172 13.6641C61.2839 13.6641 60.5156 13.8724 59.8125 14.2891C59.1354 14.6797 58.5495 15.2526 58.0547 16.0078C57.5859 16.737 57.2214 17.6224 56.9609 18.6641C56.7005 19.6797 56.5703 20.8125 56.5703 22.0625C56.5703 23.4427 56.7135 24.6927 57 25.8125C57.2865 26.9323 57.6901 27.8828 58.2109 28.6641C58.7578 29.4453 59.4089 30.0573 60.1641 30.5C60.9193 30.9167 61.7656 31.125 62.7031 31.125C64.1094 31.125 65.2031 30.6562 65.9844 29.7188C66.4531 29.1979 66.6875 28.7812 66.6875 28.4688V18.1172Z"/>
<path d="M81.8047 12.6094V28.4688C81.8047 29.276 81.8307 29.9271 81.8828 30.4219C81.9609 30.8906 82.1172 31.2682 82.3516 31.5547C82.5859 31.8151 82.9115 31.9974 83.3281 32.1016C83.7708 32.2057 84.3698 32.2969 85.125 32.375V33H74.5391V32.375C75.3203 32.3229 75.9323 32.2448 76.375 32.1406C76.8438 32.0104 77.1953 31.8151 77.4297 31.5547C77.6901 31.2682 77.8594 30.8906 77.9375 30.4219C78.0156 29.9271 78.0547 29.276 78.0547 28.4688V18.1172C78.0547 17.1276 77.9375 16.4375 77.7031 16.0469C77.4948 15.6302 77.1302 15.4219 76.6094 15.4219C76.401 15.4219 76.1536 15.4349 75.8672 15.4609C75.6068 15.487 75.3333 15.526 75.0469 15.5781L74.7344 15.6172V14.9531L81.6094 12.4922L81.8047 12.6094ZM79.5781 2.53125C80.2031 2.53125 80.737 2.76562 81.1797 3.23438C81.6224 3.67708 81.8438 4.21094 81.8438 4.83594C81.8438 5.48698 81.6224 6.03385 81.1797 6.47656C80.763 6.89323 80.2161 7.10156 79.5391 7.10156C78.888 7.10156 78.3542 6.89323 77.9375 6.47656C77.5208 6.03385 77.3125 5.48698 77.3125 4.83594C77.3125 4.21094 77.5339 3.67708 77.9766 3.23438C78.4193 2.76562 78.9531 2.53125 79.5781 2.53125Z"/>
<path d="M102.664 28.3125C102.664 29.3021 102.755 29.9922 102.938 30.3828C103.12 30.7474 103.471 30.9297 103.992 30.9297C104.591 30.9297 105.242 30.6562 105.945 30.1094V31.2422C105.19 32.0755 104.526 32.6484 103.953 32.9609C103.38 33.2734 102.716 33.4297 101.961 33.4297C101.049 33.4297 100.372 33.1823 99.9297 32.6875C99.513 32.1667 99.2526 31.3073 99.1484 30.1094C97.7943 31.2812 96.6094 32.1276 95.5938 32.6484C94.5781 33.1693 93.5885 33.4297 92.625 33.4297C91.2188 33.4297 90.0729 32.987 89.1875 32.1016C88.3281 31.2161 87.8984 30.0703 87.8984 28.6641C87.8984 27.9609 88.0286 27.2578 88.2891 26.5547C88.5755 25.8255 88.9792 25.2396 89.5 24.7969C89.9688 24.3802 90.3984 24.0286 90.7891 23.7422C91.2057 23.4297 91.7396 23.1172 92.3906 22.8047C93.0417 22.4661 93.888 22.0885 94.9297 21.6719C95.9714 21.2552 97.3516 20.6953 99.0703 19.9922V17.1406C99.0703 15.9167 98.7708 14.9922 98.1719 14.3672C97.599 13.7422 96.7656 13.4297 95.6719 13.4297C94.7604 13.4297 93.9922 13.651 93.3672 14.0938C92.7682 14.5104 92.4688 15.0182 92.4688 15.6172C92.4688 15.8516 92.4948 16.151 92.5469 16.5156C92.625 16.8802 92.6641 17.1797 92.6641 17.4141C92.6641 17.9349 92.4557 18.3776 92.0391 18.7422C91.6484 19.1068 91.1927 19.2891 90.6719 19.2891C90.151 19.2891 89.6953 19.1068 89.3047 18.7422C88.9401 18.3516 88.7578 17.8958 88.7578 17.375C88.7578 16.8021 88.9141 16.2161 89.2266 15.6172C89.5651 15.0182 90.0208 14.4844 90.5938 14.0156C91.1927 13.4948 91.987 13.0911 92.9766 12.8047C93.9922 12.5182 95.0859 12.375 96.2578 12.375C97.612 12.375 98.7448 12.6094 99.6562 13.0781C100.594 13.5208 101.31 14.1458 101.805 14.9531C102.117 15.474 102.339 16.0859 102.469 16.7891C102.599 17.4661 102.664 18.3906 102.664 19.5625V28.3125ZM99.0703 21.0859C97.7161 21.5807 96.5573 22.0625 95.5938 22.5312C94.6562 22.974 93.888 23.4427 93.2891 23.9375C92.7161 24.4062 92.2995 24.9141 92.0391 25.4609C91.7786 26.0078 91.6484 26.6068 91.6484 27.2578V27.4531C91.6484 27.9219 91.7266 28.3776 91.8828 28.8203C92.0391 29.237 92.2474 29.6016 92.5078 29.9141C92.7943 30.2266 93.1198 30.474 93.4844 30.6562C93.849 30.8385 94.2266 30.9297 94.6172 30.9297C95.0859 30.9297 95.6068 30.8385 96.1797 30.6562C96.7786 30.4479 97.3385 30.2005 97.8594 29.9141C98.3802 29.6276 98.7057 29.3281 98.8359 29.0156C98.9922 28.7031 99.0703 28.2083 99.0703 27.5312V21.0859Z"/>
<path d="M124.422 26.4375C124.057 27.1406 123.719 27.7526 123.406 28.2734C123.12 28.7682 122.833 29.224 122.547 29.6406C122.286 30.0312 122.013 30.3828 121.727 30.6953C121.44 31.0078 121.128 31.2943 120.789 31.5547C119.227 32.8047 117.495 33.4297 115.594 33.4297C114.37 33.4297 113.237 33.1953 112.195 32.7266C111.154 32.2318 110.255 31.5417 109.5 30.6562C108.771 29.7708 108.198 28.7292 107.781 27.5312C107.365 26.3333 107.156 25.0052 107.156 23.5469C107.156 21.6979 107.469 20.0052 108.094 18.4688C108.745 16.9062 109.669 15.6302 110.867 14.6406C111.779 13.8854 112.742 13.3255 113.758 12.9609C114.799 12.5703 115.854 12.375 116.922 12.375C117.859 12.375 118.745 12.5052 119.578 12.7656C120.411 13 121.141 13.3255 121.766 13.7422C122.391 14.1589 122.885 14.6536 123.25 15.2266C123.615 15.7734 123.797 16.3594 123.797 16.9844C123.797 17.5052 123.589 17.9609 123.172 18.3516C122.781 18.7422 122.299 18.9375 121.727 18.9375C121.206 18.9375 120.763 18.7422 120.398 18.3516C120.034 17.9609 119.76 17.4401 119.578 16.7891L119.305 15.8125C119.096 14.9792 118.797 14.4193 118.406 14.1328C118.042 13.8464 117.456 13.7031 116.648 13.7031C115.737 13.7031 114.904 13.8984 114.148 14.2891C113.419 14.6536 112.794 15.1875 112.273 15.8906C111.753 16.5938 111.336 17.4271 111.023 18.3906C110.737 19.3542 110.594 20.4219 110.594 21.5938C110.594 22.8438 110.763 24.0026 111.102 25.0703C111.44 26.138 111.909 27.0495 112.508 27.8047C113.107 28.5599 113.823 29.1589 114.656 29.6016C115.516 30.0182 116.453 30.2266 117.469 30.2266C118.745 30.2266 119.852 29.9271 120.789 29.3281C121.727 28.7031 122.729 27.6094 123.797 26.0469L124.422 26.4375Z"/>
<path d="M139.188 19.0156C138.693 17.0104 138.081 15.5911 137.352 14.7578C136.622 13.9245 135.62 13.5078 134.344 13.5078C133.302 13.5078 132.469 13.7943 131.844 14.3672C131.219 14.9141 130.906 15.6432 130.906 16.5547C130.906 17.8307 131.544 18.8464 132.82 19.6016L137.625 22.4531C138.979 23.2604 139.943 24.0677 140.516 24.875C141.089 25.6562 141.375 26.6068 141.375 27.7266C141.375 28.5078 141.206 29.25 140.867 29.9531C140.529 30.6562 140.073 31.2682 139.5 31.7891C138.953 32.2839 138.302 32.6875 137.547 33C136.792 33.2865 135.984 33.4297 135.125 33.4297C134.656 33.4297 134.148 33.3906 133.602 33.3125C133.055 33.2604 132.456 33.1562 131.805 33C131.284 32.8698 130.88 32.7786 130.594 32.7266C130.307 32.6745 130.034 32.6484 129.773 32.6484C129.513 32.6484 129.318 32.6875 129.188 32.7656C129.057 32.8438 128.914 32.987 128.758 33.1953H128.172V26.2422H128.875C129.135 27.388 129.435 28.3516 129.773 29.1328C130.112 29.9141 130.503 30.5521 130.945 31.0469C131.388 31.5417 131.909 31.9062 132.508 32.1406C133.107 32.349 133.784 32.4531 134.539 32.4531C135.711 32.4531 136.622 32.1667 137.273 31.5938C137.951 31.0208 138.289 30.2396 138.289 29.25C138.289 27.9219 137.508 26.8151 135.945 25.9297L133.367 24.4453C132.404 23.8984 131.583 23.3776 130.906 22.8828C130.255 22.388 129.721 21.8932 129.305 21.3984C128.888 20.8776 128.589 20.3438 128.406 19.7969C128.224 19.25 128.133 18.6641 128.133 18.0391C128.133 17.2318 128.276 16.4896 128.562 15.8125C128.875 15.1354 129.292 14.5495 129.812 14.0547C130.359 13.5599 131.01 13.1823 131.766 12.9219C132.521 12.6615 133.354 12.5312 134.266 12.5312C135.307 12.5312 136.31 12.7135 137.273 13.0781C137.82 13.3125 138.237 13.4297 138.523 13.4297C138.628 13.4297 138.706 13.4036 138.758 13.3516C138.81 13.2995 138.94 13.1823 139.148 13L139.188 12.9219H139.734L139.891 19.0156H139.188Z"/>
<path d="M160.047 8.35156C160.047 7.51823 159.995 6.85417 159.891 6.35938C159.812 5.86458 159.617 5.47396 159.305 5.1875C158.992 4.90104 158.549 4.70573 157.977 4.60156C157.404 4.4974 156.648 4.41927 155.711 4.36719V3.46875H168.953V4.36719C168.016 4.39323 167.26 4.47135 166.688 4.60156C166.115 4.70573 165.672 4.90104 165.359 5.1875C165.047 5.47396 164.839 5.8776 164.734 6.39844C164.63 6.89323 164.578 7.54427 164.578 8.35156V28.1953C164.578 29.0026 164.63 29.6667 164.734 30.1875C164.865 30.6823 165.086 31.0729 165.398 31.3594C165.711 31.6458 166.154 31.8542 166.727 31.9844C167.299 32.0885 168.042 32.1536 168.953 32.1797V33H155.711V32.1797C156.648 32.1536 157.404 32.0885 157.977 31.9844C158.549 31.8542 158.979 31.6458 159.266 31.3594C159.578 31.0729 159.786 30.6823 159.891 30.1875C159.995 29.6927 160.047 29.0286 160.047 28.1953V8.35156Z"/>
<path d="M170.516 14.4844C171.74 14.1458 172.794 13.8333 173.68 13.5469C174.591 13.2604 175.581 12.9089 176.648 12.4922L177 12.5703V16.125C177.755 15.4219 178.419 14.8359 178.992 14.3672C179.565 13.8984 180.086 13.5339 180.555 13.2734C181.049 12.987 181.518 12.7917 181.961 12.6875C182.43 12.5573 182.924 12.4922 183.445 12.4922C185.086 12.4922 186.375 13.0781 187.312 14.25C188.25 15.4219 188.719 17.0625 188.719 19.1719V29.4062C188.719 30.474 188.901 31.2031 189.266 31.5938C189.63 31.9844 190.346 32.2448 191.414 32.375V33H182.156V32.375C182.703 32.3229 183.159 32.2318 183.523 32.1016C183.888 31.9714 184.174 31.763 184.383 31.4766C184.617 31.1901 184.773 30.8125 184.852 30.3438C184.93 29.875 184.969 29.2891 184.969 28.5859V19.25C184.969 16.3854 183.888 14.9531 181.727 14.9531C181.362 14.9531 181.01 14.9922 180.672 15.0703C180.333 15.1484 179.982 15.2786 179.617 15.4609C179.279 15.6432 178.901 15.9036 178.484 16.2422C178.094 16.5807 177.625 16.9974 177.078 17.4922V30.0312C177.078 30.8385 177.286 31.4115 177.703 31.75C178.12 32.0625 178.901 32.2708 180.047 32.375V33H170.594V32.375C171.167 32.3229 171.622 32.2448 171.961 32.1406C172.326 32.0104 172.612 31.8151 172.82 31.5547C173.029 31.2943 173.172 30.9688 173.25 30.5781C173.328 30.1615 173.367 29.6406 173.367 29.0156V17.9219C173.367 16.8281 173.25 16.0859 173.016 15.6953C172.781 15.2786 172.352 15.0703 171.727 15.0703C171.258 15.0703 170.854 15.1354 170.516 15.2656V14.4844Z"/>
<path d="M205.906 14.3281H200.438V28.3906C200.438 29.224 200.477 29.901 200.555 30.4219C200.659 30.9167 200.854 31.3073 201.141 31.5938C201.427 31.8542 201.844 32.0495 202.391 32.1797C202.938 32.2839 203.667 32.349 204.578 32.375V33H193.016V32.375C193.823 32.3229 194.461 32.2448 194.93 32.1406C195.424 32.0104 195.802 31.8021 196.062 31.5156C196.323 31.2292 196.492 30.8385 196.57 30.3438C196.648 29.849 196.688 29.1979 196.688 28.3906V14.3281H193.055V12.8438H196.688C196.688 11.9583 196.714 11.1901 196.766 10.5391C196.844 9.86198 196.935 9.26302 197.039 8.74219C197.169 8.19531 197.326 7.6875 197.508 7.21875C197.716 6.75 197.964 6.26823 198.25 5.77344C198.823 4.78385 199.656 4.0026 200.75 3.42969C201.87 2.83073 203.133 2.53125 204.539 2.53125C205.893 2.53125 207 2.79167 207.859 3.3125C208.745 3.83333 209.188 4.4974 209.188 5.30469C209.188 5.82552 209.005 6.26823 208.641 6.63281C208.302 6.9974 207.859 7.17969 207.312 7.17969C206.948 7.17969 206.609 7.0625 206.297 6.82812C205.984 6.56771 205.659 6.13802 205.32 5.53906C204.93 4.88802 204.552 4.44531 204.188 4.21094C203.849 3.95052 203.432 3.82031 202.938 3.82031C201.245 3.82031 200.398 5.13542 200.398 7.76562V12.8438H205.906V14.3281Z"/>
<path d="M218.133 12.4922C219.565 12.4922 220.88 12.7396 222.078 13.2344C223.276 13.7292 224.305 14.4323 225.164 15.3438C226.049 16.2292 226.74 17.2839 227.234 18.5078C227.729 19.7318 227.977 21.0859 227.977 22.5703C227.977 24.1328 227.716 25.5781 227.195 26.9062C226.701 28.2083 226.01 29.3542 225.125 30.3438C224.24 31.3073 223.185 32.0625 221.961 32.6094C220.763 33.1562 219.461 33.4297 218.055 33.4297C216.648 33.4297 215.346 33.1693 214.148 32.6484C212.951 32.1276 211.922 31.3984 211.062 30.4609C210.203 29.5234 209.526 28.4167 209.031 27.1406C208.536 25.8646 208.289 24.4714 208.289 22.9609C208.289 21.4245 208.523 20.0182 208.992 18.7422C209.487 17.4401 210.164 16.3333 211.023 15.4219C211.883 14.4844 212.911 13.7682 214.109 13.2734C215.333 12.7526 216.674 12.4922 218.133 12.4922ZM217.469 13.7422C215.906 13.7422 214.656 14.3802 213.719 15.6562C212.781 16.9323 212.312 18.625 212.312 20.7344C212.312 22.3229 212.482 23.8724 212.82 25.3828C213.159 26.8672 213.641 28.1953 214.266 29.3672C214.734 30.2786 215.359 30.9818 216.141 31.4766C216.922 31.9714 217.768 32.2188 218.68 32.2188C220.32 32.2188 221.596 31.5026 222.508 30.0703C223.445 28.612 223.914 26.6198 223.914 24.0938C223.914 22.1927 223.641 20.4219 223.094 18.7812C222.547 17.1406 221.805 15.9036 220.867 15.0703C220.372 14.6016 219.852 14.263 219.305 14.0547C218.758 13.8464 218.146 13.7422 217.469 13.7422Z"/>
</mask>
<path d="M28.6406 25.1875L27.5469 33H2.39062V32.375L21.8828 5.1875H12.0391C9.07031 5.1875 7.0651 5.82552 6.02344 7.10156C5.65885 7.57031 5.35938 8.09115 5.125 8.66406C4.91667 9.21094 4.73438 10.0182 4.57812 11.0859H3.36719L4.26562 3.46875H27.7422V4.17188L8.44531 31.3203H19.9297C21.2057 31.3203 22.3125 31.1771 23.25 30.8906C24.2135 30.5781 24.9557 30.1354 25.4766 29.5625C25.7109 29.3281 25.9062 29.0807 26.0625 28.8203C26.2448 28.5599 26.4141 28.2734 26.5703 27.9609C26.7526 27.6224 26.9219 27.2318 27.0781 26.7891C27.2344 26.3464 27.4036 25.8125 27.5859 25.1875H28.6406Z" fill="#E5E4E0" fill-opacity="0.47"/>
<path d="M40.3594 12.4922C41.7917 12.4922 43.1068 12.7396 44.3047 13.2344C45.5026 13.7292 46.5312 14.4323 47.3906 15.3438C48.276 16.2292 48.9661 17.2839 49.4609 18.5078C49.9557 19.7318 50.2031 21.0859 50.2031 22.5703C50.2031 24.1328 49.9427 25.5781 49.4219 26.9062C48.9271 28.2083 48.237 29.3542 47.3516 30.3438C46.4661 31.3073 45.4115 32.0625 44.1875 32.6094C42.9896 33.1562 41.6875 33.4297 40.2812 33.4297C38.875 33.4297 37.5729 33.1693 36.375 32.6484C35.1771 32.1276 34.1484 31.3984 33.2891 30.4609C32.4297 29.5234 31.7526 28.4167 31.2578 27.1406C30.763 25.8646 30.5156 24.4714 30.5156 22.9609C30.5156 21.4245 30.75 20.0182 31.2188 18.7422C31.7135 17.4401 32.3906 16.3333 33.25 15.4219C34.1094 14.4844 35.138 13.7682 36.3359 13.2734C37.5599 12.7526 38.901 12.4922 40.3594 12.4922ZM39.6953 13.7422C38.1328 13.7422 36.8828 14.3802 35.9453 15.6562C35.0078 16.9323 34.5391 18.625 34.5391 20.7344C34.5391 22.3229 34.7083 23.8724 35.0469 25.3828C35.3854 26.8672 35.8672 28.1953 36.4922 29.3672C36.9609 30.2786 37.5859 30.9818 38.3672 31.4766C39.1484 31.9714 39.9948 32.2188 40.9062 32.2188C42.5469 32.2188 43.8229 31.5026 44.7344 30.0703C45.6719 28.612 46.1406 26.6198 46.1406 24.0938C46.1406 22.1927 45.8672 20.4219 45.3203 18.7812C44.7734 17.1406 44.0312 15.9036 43.0938 15.0703C42.599 14.6016 42.0781 14.263 41.5312 14.0547C40.9844 13.8464 40.3724 13.7422 39.6953 13.7422Z" fill="#E5E4E0" fill-opacity="0.47"/>
<path d="M66.6875 33.3125V30.4219C65.9323 31.5156 65.099 32.2969 64.1875 32.7656C63.3021 33.2083 62.2344 33.4297 60.9844 33.4297C59.7344 33.4297 58.6016 33.2083 57.5859 32.7656C56.5703 32.2969 55.6979 31.6458 54.9688 30.8125C54.2656 29.9531 53.7057 28.9375 53.2891 27.7656C52.8984 26.5938 52.7031 25.2917 52.7031 23.8594C52.7031 22.2708 52.9505 20.7865 53.4453 19.4062C53.9401 18.026 54.6042 16.8151 55.4375 15.7734C56.2708 14.7318 57.2474 13.9115 58.3672 13.3125C59.513 12.7135 60.724 12.4141 62 12.4141C62.9115 12.4141 63.7057 12.5573 64.3828 12.8438C65.0599 13.1042 65.8281 13.599 66.6875 14.3281V7.45312C66.6875 6.54167 66.5443 5.92969 66.2578 5.61719C65.9974 5.30469 65.4505 5.14844 64.6172 5.14844C64.4349 5.14844 64.2656 5.16146 64.1094 5.1875C63.9792 5.1875 63.8229 5.20052 63.6406 5.22656V4.44531C64.3438 4.26302 64.9818 4.10677 65.5547 3.97656C66.1276 3.82031 66.6615 3.67708 67.1562 3.54688C67.6771 3.39062 68.1719 3.23438 68.6406 3.07812C69.1354 2.92188 69.6562 2.73958 70.2031 2.53125L70.4375 2.64844V27.9219C70.4375 28.9635 70.5547 29.6536 70.7891 29.9922C71.0495 30.3047 71.5833 30.4609 72.3906 30.4609C72.5208 30.4609 72.6771 30.4609 72.8594 30.4609C73.0677 30.4349 73.263 30.4219 73.4453 30.4219V31.125L66.8828 33.4297L66.6875 33.3125ZM66.6875 18.1172C66.6875 17.5443 66.5573 16.9974 66.2969 16.4766C66.0625 15.9297 65.737 15.4479 65.3203 15.0312C64.9036 14.6146 64.4089 14.2891 63.8359 14.0547C63.2891 13.7943 62.7161 13.6641 62.1172 13.6641C61.2839 13.6641 60.5156 13.8724 59.8125 14.2891C59.1354 14.6797 58.5495 15.2526 58.0547 16.0078C57.5859 16.737 57.2214 17.6224 56.9609 18.6641C56.7005 19.6797 56.5703 20.8125 56.5703 22.0625C56.5703 23.4427 56.7135 24.6927 57 25.8125C57.2865 26.9323 57.6901 27.8828 58.2109 28.6641C58.7578 29.4453 59.4089 30.0573 60.1641 30.5C60.9193 30.9167 61.7656 31.125 62.7031 31.125C64.1094 31.125 65.2031 30.6562 65.9844 29.7188C66.4531 29.1979 66.6875 28.7812 66.6875 28.4688V18.1172Z" fill="#E5E4E0" fill-opacity="0.47"/>
<path d="M81.8047 12.6094V28.4688C81.8047 29.276 81.8307 29.9271 81.8828 30.4219C81.9609 30.8906 82.1172 31.2682 82.3516 31.5547C82.5859 31.8151 82.9115 31.9974 83.3281 32.1016C83.7708 32.2057 84.3698 32.2969 85.125 32.375V33H74.5391V32.375C75.3203 32.3229 75.9323 32.2448 76.375 32.1406C76.8438 32.0104 77.1953 31.8151 77.4297 31.5547C77.6901 31.2682 77.8594 30.8906 77.9375 30.4219C78.0156 29.9271 78.0547 29.276 78.0547 28.4688V18.1172C78.0547 17.1276 77.9375 16.4375 77.7031 16.0469C77.4948 15.6302 77.1302 15.4219 76.6094 15.4219C76.401 15.4219 76.1536 15.4349 75.8672 15.4609C75.6068 15.487 75.3333 15.526 75.0469 15.5781L74.7344 15.6172V14.9531L81.6094 12.4922L81.8047 12.6094ZM79.5781 2.53125C80.2031 2.53125 80.737 2.76562 81.1797 3.23438C81.6224 3.67708 81.8438 4.21094 81.8438 4.83594C81.8438 5.48698 81.6224 6.03385 81.1797 6.47656C80.763 6.89323 80.2161 7.10156 79.5391 7.10156C78.888 7.10156 78.3542 6.89323 77.9375 6.47656C77.5208 6.03385 77.3125 5.48698 77.3125 4.83594C77.3125 4.21094 77.5339 3.67708 77.9766 3.23438C78.4193 2.76562 78.9531 2.53125 79.5781 2.53125Z" fill="#E5E4E0" fill-opacity="0.47"/>
<path d="M102.664 28.3125C102.664 29.3021 102.755 29.9922 102.938 30.3828C103.12 30.7474 103.471 30.9297 103.992 30.9297C104.591 30.9297 105.242 30.6562 105.945 30.1094V31.2422C105.19 32.0755 104.526 32.6484 103.953 32.9609C103.38 33.2734 102.716 33.4297 101.961 33.4297C101.049 33.4297 100.372 33.1823 99.9297 32.6875C99.513 32.1667 99.2526 31.3073 99.1484 30.1094C97.7943 31.2812 96.6094 32.1276 95.5938 32.6484C94.5781 33.1693 93.5885 33.4297 92.625 33.4297C91.2188 33.4297 90.0729 32.987 89.1875 32.1016C88.3281 31.2161 87.8984 30.0703 87.8984 28.6641C87.8984 27.9609 88.0286 27.2578 88.2891 26.5547C88.5755 25.8255 88.9792 25.2396 89.5 24.7969C89.9688 24.3802 90.3984 24.0286 90.7891 23.7422C91.2057 23.4297 91.7396 23.1172 92.3906 22.8047C93.0417 22.4661 93.888 22.0885 94.9297 21.6719C95.9714 21.2552 97.3516 20.6953 99.0703 19.9922V17.1406C99.0703 15.9167 98.7708 14.9922 98.1719 14.3672C97.599 13.7422 96.7656 13.4297 95.6719 13.4297C94.7604 13.4297 93.9922 13.651 93.3672 14.0938C92.7682 14.5104 92.4688 15.0182 92.4688 15.6172C92.4688 15.8516 92.4948 16.151 92.5469 16.5156C92.625 16.8802 92.6641 17.1797 92.6641 17.4141C92.6641 17.9349 92.4557 18.3776 92.0391 18.7422C91.6484 19.1068 91.1927 19.2891 90.6719 19.2891C90.151 19.2891 89.6953 19.1068 89.3047 18.7422C88.9401 18.3516 88.7578 17.8958 88.7578 17.375C88.7578 16.8021 88.9141 16.2161 89.2266 15.6172C89.5651 15.0182 90.0208 14.4844 90.5938 14.0156C91.1927 13.4948 91.987 13.0911 92.9766 12.8047C93.9922 12.5182 95.0859 12.375 96.2578 12.375C97.612 12.375 98.7448 12.6094 99.6562 13.0781C100.594 13.5208 101.31 14.1458 101.805 14.9531C102.117 15.474 102.339 16.0859 102.469 16.7891C102.599 17.4661 102.664 18.3906 102.664 19.5625V28.3125ZM99.0703 21.0859C97.7161 21.5807 96.5573 22.0625 95.5938 22.5312C94.6562 22.974 93.888 23.4427 93.2891 23.9375C92.7161 24.4062 92.2995 24.9141 92.0391 25.4609C91.7786 26.0078 91.6484 26.6068 91.6484 27.2578V27.4531C91.6484 27.9219 91.7266 28.3776 91.8828 28.8203C92.0391 29.237 92.2474 29.6016 92.5078 29.9141C92.7943 30.2266 93.1198 30.474 93.4844 30.6562C93.849 30.8385 94.2266 30.9297 94.6172 30.9297C95.0859 30.9297 95.6068 30.8385 96.1797 30.6562C96.7786 30.4479 97.3385 30.2005 97.8594 29.9141C98.3802 29.6276 98.7057 29.3281 98.8359 29.0156C98.9922 28.7031 99.0703 28.2083 99.0703 27.5312V21.0859Z" fill="#E5E4E0" fill-opacity="0.47"/>
<path d="M124.422 26.4375C124.057 27.1406 123.719 27.7526 123.406 28.2734C123.12 28.7682 122.833 29.224 122.547 29.6406C122.286 30.0312 122.013 30.3828 121.727 30.6953C121.44 31.0078 121.128 31.2943 120.789 31.5547C119.227 32.8047 117.495 33.4297 115.594 33.4297C114.37 33.4297 113.237 33.1953 112.195 32.7266C111.154 32.2318 110.255 31.5417 109.5 30.6562C108.771 29.7708 108.198 28.7292 107.781 27.5312C107.365 26.3333 107.156 25.0052 107.156 23.5469C107.156 21.6979 107.469 20.0052 108.094 18.4688C108.745 16.9062 109.669 15.6302 110.867 14.6406C111.779 13.8854 112.742 13.3255 113.758 12.9609C114.799 12.5703 115.854 12.375 116.922 12.375C117.859 12.375 118.745 12.5052 119.578 12.7656C120.411 13 121.141 13.3255 121.766 13.7422C122.391 14.1589 122.885 14.6536 123.25 15.2266C123.615 15.7734 123.797 16.3594 123.797 16.9844C123.797 17.5052 123.589 17.9609 123.172 18.3516C122.781 18.7422 122.299 18.9375 121.727 18.9375C121.206 18.9375 120.763 18.7422 120.398 18.3516C120.034 17.9609 119.76 17.4401 119.578 16.7891L119.305 15.8125C119.096 14.9792 118.797 14.4193 118.406 14.1328C118.042 13.8464 117.456 13.7031 116.648 13.7031C115.737 13.7031 114.904 13.8984 114.148 14.2891C113.419 14.6536 112.794 15.1875 112.273 15.8906C111.753 16.5938 111.336 17.4271 111.023 18.3906C110.737 19.3542 110.594 20.4219 110.594 21.5938C110.594 22.8438 110.763 24.0026 111.102 25.0703C111.44 26.138 111.909 27.0495 112.508 27.8047C113.107 28.5599 113.823 29.1589 114.656 29.6016C115.516 30.0182 116.453 30.2266 117.469 30.2266C118.745 30.2266 119.852 29.9271 120.789 29.3281C121.727 28.7031 122.729 27.6094 123.797 26.0469L124.422 26.4375Z" fill="#E5E4E0" fill-opacity="0.47"/>
<path d="M139.188 19.0156C138.693 17.0104 138.081 15.5911 137.352 14.7578C136.622 13.9245 135.62 13.5078 134.344 13.5078C133.302 13.5078 132.469 13.7943 131.844 14.3672C131.219 14.9141 130.906 15.6432 130.906 16.5547C130.906 17.8307 131.544 18.8464 132.82 19.6016L137.625 22.4531C138.979 23.2604 139.943 24.0677 140.516 24.875C141.089 25.6562 141.375 26.6068 141.375 27.7266C141.375 28.5078 141.206 29.25 140.867 29.9531C140.529 30.6562 140.073 31.2682 139.5 31.7891C138.953 32.2839 138.302 32.6875 137.547 33C136.792 33.2865 135.984 33.4297 135.125 33.4297C134.656 33.4297 134.148 33.3906 133.602 33.3125C133.055 33.2604 132.456 33.1562 131.805 33C131.284 32.8698 130.88 32.7786 130.594 32.7266C130.307 32.6745 130.034 32.6484 129.773 32.6484C129.513 32.6484 129.318 32.6875 129.188 32.7656C129.057 32.8438 128.914 32.987 128.758 33.1953H128.172V26.2422H128.875C129.135 27.388 129.435 28.3516 129.773 29.1328C130.112 29.9141 130.503 30.5521 130.945 31.0469C131.388 31.5417 131.909 31.9062 132.508 32.1406C133.107 32.349 133.784 32.4531 134.539 32.4531C135.711 32.4531 136.622 32.1667 137.273 31.5938C137.951 31.0208 138.289 30.2396 138.289 29.25C138.289 27.9219 137.508 26.8151 135.945 25.9297L133.367 24.4453C132.404 23.8984 131.583 23.3776 130.906 22.8828C130.255 22.388 129.721 21.8932 129.305 21.3984C128.888 20.8776 128.589 20.3438 128.406 19.7969C128.224 19.25 128.133 18.6641 128.133 18.0391C128.133 17.2318 128.276 16.4896 128.562 15.8125C128.875 15.1354 129.292 14.5495 129.812 14.0547C130.359 13.5599 131.01 13.1823 131.766 12.9219C132.521 12.6615 133.354 12.5312 134.266 12.5312C135.307 12.5312 136.31 12.7135 137.273 13.0781C137.82 13.3125 138.237 13.4297 138.523 13.4297C138.628 13.4297 138.706 13.4036 138.758 13.3516C138.81 13.2995 138.94 13.1823 139.148 13L139.188 12.9219H139.734L139.891 19.0156H139.188Z" fill="#E5E4E0" fill-opacity="0.47"/>
<path d="M160.047 8.35156C160.047 7.51823 159.995 6.85417 159.891 6.35938C159.812 5.86458 159.617 5.47396 159.305 5.1875C158.992 4.90104 158.549 4.70573 157.977 4.60156C157.404 4.4974 156.648 4.41927 155.711 4.36719V3.46875H168.953V4.36719C168.016 4.39323 167.26 4.47135 166.688 4.60156C166.115 4.70573 165.672 4.90104 165.359 5.1875C165.047 5.47396 164.839 5.8776 164.734 6.39844C164.63 6.89323 164.578 7.54427 164.578 8.35156V28.1953C164.578 29.0026 164.63 29.6667 164.734 30.1875C164.865 30.6823 165.086 31.0729 165.398 31.3594C165.711 31.6458 166.154 31.8542 166.727 31.9844C167.299 32.0885 168.042 32.1536 168.953 32.1797V33H155.711V32.1797C156.648 32.1536 157.404 32.0885 157.977 31.9844C158.549 31.8542 158.979 31.6458 159.266 31.3594C159.578 31.0729 159.786 30.6823 159.891 30.1875C159.995 29.6927 160.047 29.0286 160.047 28.1953V8.35156Z" fill="#E5E4E0" fill-opacity="0.47"/>
<path d="M170.516 14.4844C171.74 14.1458 172.794 13.8333 173.68 13.5469C174.591 13.2604 175.581 12.9089 176.648 12.4922L177 12.5703V16.125C177.755 15.4219 178.419 14.8359 178.992 14.3672C179.565 13.8984 180.086 13.5339 180.555 13.2734C181.049 12.987 181.518 12.7917 181.961 12.6875C182.43 12.5573 182.924 12.4922 183.445 12.4922C185.086 12.4922 186.375 13.0781 187.312 14.25C188.25 15.4219 188.719 17.0625 188.719 19.1719V29.4062C188.719 30.474 188.901 31.2031 189.266 31.5938C189.63 31.9844 190.346 32.2448 191.414 32.375V33H182.156V32.375C182.703 32.3229 183.159 32.2318 183.523 32.1016C183.888 31.9714 184.174 31.763 184.383 31.4766C184.617 31.1901 184.773 30.8125 184.852 30.3438C184.93 29.875 184.969 29.2891 184.969 28.5859V19.25C184.969 16.3854 183.888 14.9531 181.727 14.9531C181.362 14.9531 181.01 14.9922 180.672 15.0703C180.333 15.1484 179.982 15.2786 179.617 15.4609C179.279 15.6432 178.901 15.9036 178.484 16.2422C178.094 16.5807 177.625 16.9974 177.078 17.4922V30.0312C177.078 30.8385 177.286 31.4115 177.703 31.75C178.12 32.0625 178.901 32.2708 180.047 32.375V33H170.594V32.375C171.167 32.3229 171.622 32.2448 171.961 32.1406C172.326 32.0104 172.612 31.8151 172.82 31.5547C173.029 31.2943 173.172 30.9688 173.25 30.5781C173.328 30.1615 173.367 29.6406 173.367 29.0156V17.9219C173.367 16.8281 173.25 16.0859 173.016 15.6953C172.781 15.2786 172.352 15.0703 171.727 15.0703C171.258 15.0703 170.854 15.1354 170.516 15.2656V14.4844Z" fill="#E5E4E0" fill-opacity="0.47"/>
<path d="M205.906 14.3281H200.438V28.3906C200.438 29.224 200.477 29.901 200.555 30.4219C200.659 30.9167 200.854 31.3073 201.141 31.5938C201.427 31.8542 201.844 32.0495 202.391 32.1797C202.938 32.2839 203.667 32.349 204.578 32.375V33H193.016V32.375C193.823 32.3229 194.461 32.2448 194.93 32.1406C195.424 32.0104 195.802 31.8021 196.062 31.5156C196.323 31.2292 196.492 30.8385 196.57 30.3438C196.648 29.849 196.688 29.1979 196.688 28.3906V14.3281H193.055V12.8438H196.688C196.688 11.9583 196.714 11.1901 196.766 10.5391C196.844 9.86198 196.935 9.26302 197.039 8.74219C197.169 8.19531 197.326 7.6875 197.508 7.21875C197.716 6.75 197.964 6.26823 198.25 5.77344C198.823 4.78385 199.656 4.0026 200.75 3.42969C201.87 2.83073 203.133 2.53125 204.539 2.53125C205.893 2.53125 207 2.79167 207.859 3.3125C208.745 3.83333 209.188 4.4974 209.188 5.30469C209.188 5.82552 209.005 6.26823 208.641 6.63281C208.302 6.9974 207.859 7.17969 207.312 7.17969C206.948 7.17969 206.609 7.0625 206.297 6.82812C205.984 6.56771 205.659 6.13802 205.32 5.53906C204.93 4.88802 204.552 4.44531 204.188 4.21094C203.849 3.95052 203.432 3.82031 202.938 3.82031C201.245 3.82031 200.398 5.13542 200.398 7.76562V12.8438H205.906V14.3281Z" fill="#E5E4E0" fill-opacity="0.47"/>
<path d="M218.133 12.4922C219.565 12.4922 220.88 12.7396 222.078 13.2344C223.276 13.7292 224.305 14.4323 225.164 15.3438C226.049 16.2292 226.74 17.2839 227.234 18.5078C227.729 19.7318 227.977 21.0859 227.977 22.5703C227.977 24.1328 227.716 25.5781 227.195 26.9062C226.701 28.2083 226.01 29.3542 225.125 30.3438C224.24 31.3073 223.185 32.0625 221.961 32.6094C220.763 33.1562 219.461 33.4297 218.055 33.4297C216.648 33.4297 215.346 33.1693 214.148 32.6484C212.951 32.1276 211.922 31.3984 211.062 30.4609C210.203 29.5234 209.526 28.4167 209.031 27.1406C208.536 25.8646 208.289 24.4714 208.289 22.9609C208.289 21.4245 208.523 20.0182 208.992 18.7422C209.487 17.4401 210.164 16.3333 211.023 15.4219C211.883 14.4844 212.911 13.7682 214.109 13.2734C215.333 12.7526 216.674 12.4922 218.133 12.4922ZM217.469 13.7422C215.906 13.7422 214.656 14.3802 213.719 15.6562C212.781 16.9323 212.312 18.625 212.312 20.7344C212.312 22.3229 212.482 23.8724 212.82 25.3828C213.159 26.8672 213.641 28.1953 214.266 29.3672C214.734 30.2786 215.359 30.9818 216.141 31.4766C216.922 31.9714 217.768 32.2188 218.68 32.2188C220.32 32.2188 221.596 31.5026 222.508 30.0703C223.445 28.612 223.914 26.6198 223.914 24.0938C223.914 22.1927 223.641 20.4219 223.094 18.7812C222.547 17.1406 221.805 15.9036 220.867 15.0703C220.372 14.6016 219.852 14.263 219.305 14.0547C218.758 13.8464 218.146 13.7422 217.469 13.7422Z" fill="#E5E4E0" fill-opacity="0.47"/>
<path d="M28.6406 25.1875L27.5469 33H2.39062V32.375L21.8828 5.1875H12.0391C9.07031 5.1875 7.0651 5.82552 6.02344 7.10156C5.65885 7.57031 5.35938 8.09115 5.125 8.66406C4.91667 9.21094 4.73438 10.0182 4.57812 11.0859H3.36719L4.26562 3.46875H27.7422V4.17188L8.44531 31.3203H19.9297C21.2057 31.3203 22.3125 31.1771 23.25 30.8906C24.2135 30.5781 24.9557 30.1354 25.4766 29.5625C25.7109 29.3281 25.9062 29.0807 26.0625 28.8203C26.2448 28.5599 26.4141 28.2734 26.5703 27.9609C26.7526 27.6224 26.9219 27.2318 27.0781 26.7891C27.2344 26.3464 27.4036 25.8125 27.5859 25.1875H28.6406Z" stroke="#634EB0" stroke-width="4" mask="url(#path-1-outside-1_79_5)"/>
<path d="M40.3594 12.4922C41.7917 12.4922 43.1068 12.7396 44.3047 13.2344C45.5026 13.7292 46.5312 14.4323 47.3906 15.3438C48.276 16.2292 48.9661 17.2839 49.4609 18.5078C49.9557 19.7318 50.2031 21.0859 50.2031 22.5703C50.2031 24.1328 49.9427 25.5781 49.4219 26.9062C48.9271 28.2083 48.237 29.3542 47.3516 30.3438C46.4661 31.3073 45.4115 32.0625 44.1875 32.6094C42.9896 33.1562 41.6875 33.4297 40.2812 33.4297C38.875 33.4297 37.5729 33.1693 36.375 32.6484C35.1771 32.1276 34.1484 31.3984 33.2891 30.4609C32.4297 29.5234 31.7526 28.4167 31.2578 27.1406C30.763 25.8646 30.5156 24.4714 30.5156 22.9609C30.5156 21.4245 30.75 20.0182 31.2188 18.7422C31.7135 17.4401 32.3906 16.3333 33.25 15.4219C34.1094 14.4844 35.138 13.7682 36.3359 13.2734C37.5599 12.7526 38.901 12.4922 40.3594 12.4922ZM39.6953 13.7422C38.1328 13.7422 36.8828 14.3802 35.9453 15.6562C35.0078 16.9323 34.5391 18.625 34.5391 20.7344C34.5391 22.3229 34.7083 23.8724 35.0469 25.3828C35.3854 26.8672 35.8672 28.1953 36.4922 29.3672C36.9609 30.2786 37.5859 30.9818 38.3672 31.4766C39.1484 31.9714 39.9948 32.2188 40.9062 32.2188C42.5469 32.2188 43.8229 31.5026 44.7344 30.0703C45.6719 28.612 46.1406 26.6198 46.1406 24.0938C46.1406 22.1927 45.8672 20.4219 45.3203 18.7812C44.7734 17.1406 44.0312 15.9036 43.0938 15.0703C42.599 14.6016 42.0781 14.263 41.5312 14.0547C40.9844 13.8464 40.3724 13.7422 39.6953 13.7422Z" stroke="#634EB0" stroke-width="4" mask="url(#path-1-outside-1_79_5)"/>
<path d="M66.6875 33.3125V30.4219C65.9323 31.5156 65.099 32.2969 64.1875 32.7656C63.3021 33.2083 62.2344 33.4297 60.9844 33.4297C59.7344 33.4297 58.6016 33.2083 57.5859 32.7656C56.5703 32.2969 55.6979 31.6458 54.9688 30.8125C54.2656 29.9531 53.7057 28.9375 53.2891 27.7656C52.8984 26.5938 52.7031 25.2917 52.7031 23.8594C52.7031 22.2708 52.9505 20.7865 53.4453 19.4062C53.9401 18.026 54.6042 16.8151 55.4375 15.7734C56.2708 14.7318 57.2474 13.9115 58.3672 13.3125C59.513 12.7135 60.724 12.4141 62 12.4141C62.9115 12.4141 63.7057 12.5573 64.3828 12.8438C65.0599 13.1042 65.8281 13.599 66.6875 14.3281V7.45312C66.6875 6.54167 66.5443 5.92969 66.2578 5.61719C65.9974 5.30469 65.4505 5.14844 64.6172 5.14844C64.4349 5.14844 64.2656 5.16146 64.1094 5.1875C63.9792 5.1875 63.8229 5.20052 63.6406 5.22656V4.44531C64.3438 4.26302 64.9818 4.10677 65.5547 3.97656C66.1276 3.82031 66.6615 3.67708 67.1562 3.54688C67.6771 3.39062 68.1719 3.23438 68.6406 3.07812C69.1354 2.92188 69.6562 2.73958 70.2031 2.53125L70.4375 2.64844V27.9219C70.4375 28.9635 70.5547 29.6536 70.7891 29.9922C71.0495 30.3047 71.5833 30.4609 72.3906 30.4609C72.5208 30.4609 72.6771 30.4609 72.8594 30.4609C73.0677 30.4349 73.263 30.4219 73.4453 30.4219V31.125L66.8828 33.4297L66.6875 33.3125ZM66.6875 18.1172C66.6875 17.5443 66.5573 16.9974 66.2969 16.4766C66.0625 15.9297 65.737 15.4479 65.3203 15.0312C64.9036 14.6146 64.4089 14.2891 63.8359 14.0547C63.2891 13.7943 62.7161 13.6641 62.1172 13.6641C61.2839 13.6641 60.5156 13.8724 59.8125 14.2891C59.1354 14.6797 58.5495 15.2526 58.0547 16.0078C57.5859 16.737 57.2214 17.6224 56.9609 18.6641C56.7005 19.6797 56.5703 20.8125 56.5703 22.0625C56.5703 23.4427 56.7135 24.6927 57 25.8125C57.2865 26.9323 57.6901 27.8828 58.2109 28.6641C58.7578 29.4453 59.4089 30.0573 60.1641 30.5C60.9193 30.9167 61.7656 31.125 62.7031 31.125C64.1094 31.125 65.2031 30.6562 65.9844 29.7188C66.4531 29.1979 66.6875 28.7812 66.6875 28.4688V18.1172Z" stroke="#634EB0" stroke-width="4" mask="url(#path-1-outside-1_79_5)"/>
<path d="M81.8047 12.6094V28.4688C81.8047 29.276 81.8307 29.9271 81.8828 30.4219C81.9609 30.8906 82.1172 31.2682 82.3516 31.5547C82.5859 31.8151 82.9115 31.9974 83.3281 32.1016C83.7708 32.2057 84.3698 32.2969 85.125 32.375V33H74.5391V32.375C75.3203 32.3229 75.9323 32.2448 76.375 32.1406C76.8438 32.0104 77.1953 31.8151 77.4297 31.5547C77.6901 31.2682 77.8594 30.8906 77.9375 30.4219C78.0156 29.9271 78.0547 29.276 78.0547 28.4688V18.1172C78.0547 17.1276 77.9375 16.4375 77.7031 16.0469C77.4948 15.6302 77.1302 15.4219 76.6094 15.4219C76.401 15.4219 76.1536 15.4349 75.8672 15.4609C75.6068 15.487 75.3333 15.526 75.0469 15.5781L74.7344 15.6172V14.9531L81.6094 12.4922L81.8047 12.6094ZM79.5781 2.53125C80.2031 2.53125 80.737 2.76562 81.1797 3.23438C81.6224 3.67708 81.8438 4.21094 81.8438 4.83594C81.8438 5.48698 81.6224 6.03385 81.1797 6.47656C80.763 6.89323 80.2161 7.10156 79.5391 7.10156C78.888 7.10156 78.3542 6.89323 77.9375 6.47656C77.5208 6.03385 77.3125 5.48698 77.3125 4.83594C77.3125 4.21094 77.5339 3.67708 77.9766 3.23438C78.4193 2.76562 78.9531 2.53125 79.5781 2.53125Z" stroke="#634EB0" stroke-width="4" mask="url(#path-1-outside-1_79_5)"/>
<path d="M102.664 28.3125C102.664 29.3021 102.755 29.9922 102.938 30.3828C103.12 30.7474 103.471 30.9297 103.992 30.9297C104.591 30.9297 105.242 30.6562 105.945 30.1094V31.2422C105.19 32.0755 104.526 32.6484 103.953 32.9609C103.38 33.2734 102.716 33.4297 101.961 33.4297C101.049 33.4297 100.372 33.1823 99.9297 32.6875C99.513 32.1667 99.2526 31.3073 99.1484 30.1094C97.7943 31.2812 96.6094 32.1276 95.5938 32.6484C94.5781 33.1693 93.5885 33.4297 92.625 33.4297C91.2188 33.4297 90.0729 32.987 89.1875 32.1016C88.3281 31.2161 87.8984 30.0703 87.8984 28.6641C87.8984 27.9609 88.0286 27.2578 88.2891 26.5547C88.5755 25.8255 88.9792 25.2396 89.5 24.7969C89.9688 24.3802 90.3984 24.0286 90.7891 23.7422C91.2057 23.4297 91.7396 23.1172 92.3906 22.8047C93.0417 22.4661 93.888 22.0885 94.9297 21.6719C95.9714 21.2552 97.3516 20.6953 99.0703 19.9922V17.1406C99.0703 15.9167 98.7708 14.9922 98.1719 14.3672C97.599 13.7422 96.7656 13.4297 95.6719 13.4297C94.7604 13.4297 93.9922 13.651 93.3672 14.0938C92.7682 14.5104 92.4688 15.0182 92.4688 15.6172C92.4688 15.8516 92.4948 16.151 92.5469 16.5156C92.625 16.8802 92.6641 17.1797 92.6641 17.4141C92.6641 17.9349 92.4557 18.3776 92.0391 18.7422C91.6484 19.1068 91.1927 19.2891 90.6719 19.2891C90.151 19.2891 89.6953 19.1068 89.3047 18.7422C88.9401 18.3516 88.7578 17.8958 88.7578 17.375C88.7578 16.8021 88.9141 16.2161 89.2266 15.6172C89.5651 15.0182 90.0208 14.4844 90.5938 14.0156C91.1927 13.4948 91.987 13.0911 92.9766 12.8047C93.9922 12.5182 95.0859 12.375 96.2578 12.375C97.612 12.375 98.7448 12.6094 99.6562 13.0781C100.594 13.5208 101.31 14.1458 101.805 14.9531C102.117 15.474 102.339 16.0859 102.469 16.7891C102.599 17.4661 102.664 18.3906 102.664 19.5625V28.3125ZM99.0703 21.0859C97.7161 21.5807 96.5573 22.0625 95.5938 22.5312C94.6562 22.974 93.888 23.4427 93.2891 23.9375C92.7161 24.4062 92.2995 24.9141 92.0391 25.4609C91.7786 26.0078 91.6484 26.6068 91.6484 27.2578V27.4531C91.6484 27.9219 91.7266 28.3776 91.8828 28.8203C92.0391 29.237 92.2474 29.6016 92.5078 29.9141C92.7943 30.2266 93.1198 30.474 93.4844 30.6562C93.849 30.8385 94.2266 30.9297 94.6172 30.9297C95.0859 30.9297 95.6068 30.8385 96.1797 30.6562C96.7786 30.4479 97.3385 30.2005 97.8594 29.9141C98.3802 29.6276 98.7057 29.3281 98.8359 29.0156C98.9922 28.7031 99.0703 28.2083 99.0703 27.5312V21.0859Z" stroke="#634EB0" stroke-width="4" mask="url(#path-1-outside-1_79_5)"/>
<path d="M124.422 26.4375C124.057 27.1406 123.719 27.7526 123.406 28.2734C123.12 28.7682 122.833 29.224 122.547 29.6406C122.286 30.0312 122.013 30.3828 121.727 30.6953C121.44 31.0078 121.128 31.2943 120.789 31.5547C119.227 32.8047 117.495 33.4297 115.594 33.4297C114.37 33.4297 113.237 33.1953 112.195 32.7266C111.154 32.2318 110.255 31.5417 109.5 30.6562C108.771 29.7708 108.198 28.7292 107.781 27.5312C107.365 26.3333 107.156 25.0052 107.156 23.5469C107.156 21.6979 107.469 20.0052 108.094 18.4688C108.745 16.9062 109.669 15.6302 110.867 14.6406C111.779 13.8854 112.742 13.3255 113.758 12.9609C114.799 12.5703 115.854 12.375 116.922 12.375C117.859 12.375 118.745 12.5052 119.578 12.7656C120.411 13 121.141 13.3255 121.766 13.7422C122.391 14.1589 122.885 14.6536 123.25 15.2266C123.615 15.7734 123.797 16.3594 123.797 16.9844C123.797 17.5052 123.589 17.9609 123.172 18.3516C122.781 18.7422 122.299 18.9375 121.727 18.9375C121.206 18.9375 120.763 18.7422 120.398 18.3516C120.034 17.9609 119.76 17.4401 119.578 16.7891L119.305 15.8125C119.096 14.9792 118.797 14.4193 118.406 14.1328C118.042 13.8464 117.456 13.7031 116.648 13.7031C115.737 13.7031 114.904 13.8984 114.148 14.2891C113.419 14.6536 112.794 15.1875 112.273 15.8906C111.753 16.5938 111.336 17.4271 111.023 18.3906C110.737 19.3542 110.594 20.4219 110.594 21.5938C110.594 22.8438 110.763 24.0026 111.102 25.0703C111.44 26.138 111.909 27.0495 112.508 27.8047C113.107 28.5599 113.823 29.1589 114.656 29.6016C115.516 30.0182 116.453 30.2266 117.469 30.2266C118.745 30.2266 119.852 29.9271 120.789 29.3281C121.727 28.7031 122.729 27.6094 123.797 26.0469L124.422 26.4375Z" stroke="#634EB0" stroke-width="4" mask="url(#path-1-outside-1_79_5)"/>
<path d="M139.188 19.0156C138.693 17.0104 138.081 15.5911 137.352 14.7578C136.622 13.9245 135.62 13.5078 134.344 13.5078C133.302 13.5078 132.469 13.7943 131.844 14.3672C131.219 14.9141 130.906 15.6432 130.906 16.5547C130.906 17.8307 131.544 18.8464 132.82 19.6016L137.625 22.4531C138.979 23.2604 139.943 24.0677 140.516 24.875C141.089 25.6562 141.375 26.6068 141.375 27.7266C141.375 28.5078 141.206 29.25 140.867 29.9531C140.529 30.6562 140.073 31.2682 139.5 31.7891C138.953 32.2839 138.302 32.6875 137.547 33C136.792 33.2865 135.984 33.4297 135.125 33.4297C134.656 33.4297 134.148 33.3906 133.602 33.3125C133.055 33.2604 132.456 33.1562 131.805 33C131.284 32.8698 130.88 32.7786 130.594 32.7266C130.307 32.6745 130.034 32.6484 129.773 32.6484C129.513 32.6484 129.318 32.6875 129.188 32.7656C129.057 32.8438 128.914 32.987 128.758 33.1953H128.172V26.2422H128.875C129.135 27.388 129.435 28.3516 129.773 29.1328C130.112 29.9141 130.503 30.5521 130.945 31.0469C131.388 31.5417 131.909 31.9062 132.508 32.1406C133.107 32.349 133.784 32.4531 134.539 32.4531C135.711 32.4531 136.622 32.1667 137.273 31.5938C137.951 31.0208 138.289 30.2396 138.289 29.25C138.289 27.9219 137.508 26.8151 135.945 25.9297L133.367 24.4453C132.404 23.8984 131.583 23.3776 130.906 22.8828C130.255 22.388 129.721 21.8932 129.305 21.3984C128.888 20.8776 128.589 20.3438 128.406 19.7969C128.224 19.25 128.133 18.6641 128.133 18.0391C128.133 17.2318 128.276 16.4896 128.562 15.8125C128.875 15.1354 129.292 14.5495 129.812 14.0547C130.359 13.5599 131.01 13.1823 131.766 12.9219C132.521 12.6615 133.354 12.5312 134.266 12.5312C135.307 12.5312 136.31 12.7135 137.273 13.0781C137.82 13.3125 138.237 13.4297 138.523 13.4297C138.628 13.4297 138.706 13.4036 138.758 13.3516C138.81 13.2995 138.94 13.1823 139.148 13L139.188 12.9219H139.734L139.891 19.0156H139.188Z" stroke="#634EB0" stroke-width="4" mask="url(#path-1-outside-1_79_5)"/>
<path d="M160.047 8.35156C160.047 7.51823 159.995 6.85417 159.891 6.35938C159.812 5.86458 159.617 5.47396 159.305 5.1875C158.992 4.90104 158.549 4.70573 157.977 4.60156C157.404 4.4974 156.648 4.41927 155.711 4.36719V3.46875H168.953V4.36719C168.016 4.39323 167.26 4.47135 166.688 4.60156C166.115 4.70573 165.672 4.90104 165.359 5.1875C165.047 5.47396 164.839 5.8776 164.734 6.39844C164.63 6.89323 164.578 7.54427 164.578 8.35156V28.1953C164.578 29.0026 164.63 29.6667 164.734 30.1875C164.865 30.6823 165.086 31.0729 165.398 31.3594C165.711 31.6458 166.154 31.8542 166.727 31.9844C167.299 32.0885 168.042 32.1536 168.953 32.1797V33H155.711V32.1797C156.648 32.1536 157.404 32.0885 157.977 31.9844C158.549 31.8542 158.979 31.6458 159.266 31.3594C159.578 31.0729 159.786 30.6823 159.891 30.1875C159.995 29.6927 160.047 29.0286 160.047 28.1953V8.35156Z" stroke="#634EB0" stroke-width="4" mask="url(#path-1-outside-1_79_5)"/>
<path d="M170.516 14.4844C171.74 14.1458 172.794 13.8333 173.68 13.5469C174.591 13.2604 175.581 12.9089 176.648 12.4922L177 12.5703V16.125C177.755 15.4219 178.419 14.8359 178.992 14.3672C179.565 13.8984 180.086 13.5339 180.555 13.2734C181.049 12.987 181.518 12.7917 181.961 12.6875C182.43 12.5573 182.924 12.4922 183.445 12.4922C185.086 12.4922 186.375 13.0781 187.312 14.25C188.25 15.4219 188.719 17.0625 188.719 19.1719V29.4062C188.719 30.474 188.901 31.2031 189.266 31.5938C189.63 31.9844 190.346 32.2448 191.414 32.375V33H182.156V32.375C182.703 32.3229 183.159 32.2318 183.523 32.1016C183.888 31.9714 184.174 31.763 184.383 31.4766C184.617 31.1901 184.773 30.8125 184.852 30.3438C184.93 29.875 184.969 29.2891 184.969 28.5859V19.25C184.969 16.3854 183.888 14.9531 181.727 14.9531C181.362 14.9531 181.01 14.9922 180.672 15.0703C180.333 15.1484 179.982 15.2786 179.617 15.4609C179.279 15.6432 178.901 15.9036 178.484 16.2422C178.094 16.5807 177.625 16.9974 177.078 17.4922V30.0312C177.078 30.8385 177.286 31.4115 177.703 31.75C178.12 32.0625 178.901 32.2708 180.047 32.375V33H170.594V32.375C171.167 32.3229 171.622 32.2448 171.961 32.1406C172.326 32.0104 172.612 31.8151 172.82 31.5547C173.029 31.2943 173.172 30.9688 173.25 30.5781C173.328 30.1615 173.367 29.6406 173.367 29.0156V17.9219C173.367 16.8281 173.25 16.0859 173.016 15.6953C172.781 15.2786 172.352 15.0703 171.727 15.0703C171.258 15.0703 170.854 15.1354 170.516 15.2656V14.4844Z" stroke="#634EB0" stroke-width="4" mask="url(#path-1-outside-1_79_5)"/>
<path d="M205.906 14.3281H200.438V28.3906C200.438 29.224 200.477 29.901 200.555 30.4219C200.659 30.9167 200.854 31.3073 201.141 31.5938C201.427 31.8542 201.844 32.0495 202.391 32.1797C202.938 32.2839 203.667 32.349 204.578 32.375V33H193.016V32.375C193.823 32.3229 194.461 32.2448 194.93 32.1406C195.424 32.0104 195.802 31.8021 196.062 31.5156C196.323 31.2292 196.492 30.8385 196.57 30.3438C196.648 29.849 196.688 29.1979 196.688 28.3906V14.3281H193.055V12.8438H196.688C196.688 11.9583 196.714 11.1901 196.766 10.5391C196.844 9.86198 196.935 9.26302 197.039 8.74219C197.169 8.19531 197.326 7.6875 197.508 7.21875C197.716 6.75 197.964 6.26823 198.25 5.77344C198.823 4.78385 199.656 4.0026 200.75 3.42969C201.87 2.83073 203.133 2.53125 204.539 2.53125C205.893 2.53125 207 2.79167 207.859 3.3125C208.745 3.83333 209.188 4.4974 209.188 5.30469C209.188 5.82552 209.005 6.26823 208.641 6.63281C208.302 6.9974 207.859 7.17969 207.312 7.17969C206.948 7.17969 206.609 7.0625 206.297 6.82812C205.984 6.56771 205.659 6.13802 205.32 5.53906C204.93 4.88802 204.552 4.44531 204.188 4.21094C203.849 3.95052 203.432 3.82031 202.938 3.82031C201.245 3.82031 200.398 5.13542 200.398 7.76562V12.8438H205.906V14.3281Z" stroke="#634EB0" stroke-width="4" mask="url(#path-1-outside-1_79_5)"/>
<path d="M218.133 12.4922C219.565 12.4922 220.88 12.7396 222.078 13.2344C223.276 13.7292 224.305 14.4323 225.164 15.3438C226.049 16.2292 226.74 17.2839 227.234 18.5078C227.729 19.7318 227.977 21.0859 227.977 22.5703C227.977 24.1328 227.716 25.5781 227.195 26.9062C226.701 28.2083 226.01 29.3542 225.125 30.3438C224.24 31.3073 223.185 32.0625 221.961 32.6094C220.763 33.1562 219.461 33.4297 218.055 33.4297C216.648 33.4297 215.346 33.1693 214.148 32.6484C212.951 32.1276 211.922 31.3984 211.062 30.4609C210.203 29.5234 209.526 28.4167 209.031 27.1406C208.536 25.8646 208.289 24.4714 208.289 22.9609C208.289 21.4245 208.523 20.0182 208.992 18.7422C209.487 17.4401 210.164 16.3333 211.023 15.4219C211.883 14.4844 212.911 13.7682 214.109 13.2734C215.333 12.7526 216.674 12.4922 218.133 12.4922ZM217.469 13.7422C215.906 13.7422 214.656 14.3802 213.719 15.6562C212.781 16.9323 212.312 18.625 212.312 20.7344C212.312 22.3229 212.482 23.8724 212.82 25.3828C213.159 26.8672 213.641 28.1953 214.266 29.3672C214.734 30.2786 215.359 30.9818 216.141 31.4766C216.922 31.9714 217.768 32.2188 218.68 32.2188C220.32 32.2188 221.596 31.5026 222.508 30.0703C223.445 28.612 223.914 26.6198 223.914 24.0938C223.914 22.1927 223.641 20.4219 223.094 18.7812C222.547 17.1406 221.805 15.9036 220.867 15.0703C220.372 14.6016 219.852 14.263 219.305 14.0547C218.758 13.8464 218.146 13.7422 217.469 13.7422Z" stroke="#634EB0" stroke-width="4" mask="url(#path-1-outside-1_79_5)"/>
</svg>
